<svg id="Group_751" data-name="Group 751" xmlns="http://www.w3.org/2000/svg" width="19.684" height="19.686" viewBox="0 0 19.684 19.686">
  <path id="Path_998" data-name="Path 998" d="M243.467,253.453a.41.41,0,0,1-.4-.49l.58-2.9a.4.4,0,0,1,.112-.21l6.38-6.38a1.233,1.233,0,0,1,1.74,0l1.16,1.16a1.231,1.231,0,0,1,0,1.74l-6.38,6.38a.408.408,0,0,1-.21.112l-2.9.58A.434.434,0,0,1,243.467,253.453Zm.958-3.108-.435,2.174,2.174-.435,6.292-6.292a.41.41,0,0,0,0-.58l-1.16-1.16a.41.41,0,0,0-.58,0Zm1.941,2.118h0Z" transform="translate(-233.711 -233.767)" fill="#707070"/>
  <path id="Path_999" data-name="Path 999" d="M7.792,78.764H2.051A2.052,2.052,0,0,1,0,76.714V66.051A2.052,2.052,0,0,1,2.051,64h1.64a.41.41,0,1,1,0,.82H2.051a1.232,1.232,0,0,0-1.23,1.23V76.714a1.232,1.232,0,0,0,1.23,1.23H7.792a.41.41,0,0,1,0,.82Z" transform="translate(0 -61.539)" fill="#707070"/>
  <path id="Path_1000" data-name="Path 1000" d="M259.691,71.382a.41.41,0,0,1-.41-.41V66.051a1.232,1.232,0,0,0-1.23-1.23h-1.64a.41.41,0,1,1,0-.82h1.64a2.052,2.052,0,0,1,2.051,2.051v4.921A.41.41,0,0,1,259.691,71.382Z" transform="translate(-246.157 -61.539)" fill="#707070"/>
  <path id="Path_1001" data-name="Path 1001" d="M91.485,4.921H86.563a1.232,1.232,0,0,1-1.23-1.23V2.051a.41.41,0,0,1,.41-.41h1.271a2.051,2.051,0,0,1,4.019,0H92.3a.41.41,0,0,1,.41.41v1.64A1.232,1.232,0,0,1,91.485,4.921ZM86.153,2.461v1.23a.411.411,0,0,0,.41.41h4.921a.411.411,0,0,0,.41-.41V2.461h-1.23a.41.41,0,0,1-.41-.41,1.23,1.23,0,1,0-2.461,0,.41.41,0,0,1-.41.41Z" transform="translate(-82.052)" fill="#707070"/>
  <path id="Path_1002" data-name="Path 1002" d="M72.612,171.487h-8.2a.41.41,0,1,1,0-.82h8.2a.41.41,0,1,1,0,.82Z" transform="translate(-61.539 -164.105)" fill="#707070"/>
  <path id="Path_1003" data-name="Path 1003" d="M72.612,235.487h-8.2a.41.41,0,1,1,0-.82h8.2a.41.41,0,1,1,0,.82Z" transform="translate(-61.539 -225.645)" fill="#707070"/>
  <path id="Path_1004" data-name="Path 1004" d="M72.612,299.487h-8.2a.41.41,0,1,1,0-.82h8.2a.41.41,0,1,1,0,.82Z" transform="translate(-61.539 -287.184)" fill="#707070"/>
</svg>
