<svg xmlns="http://www.w3.org/2000/svg" width="18.608" height="18.328" viewBox="0 0 18.608 18.328">
  <g id="Group_752" data-name="Group 752" transform="translate(0 -2.758)">
    <g id="Group_714" data-name="Group 714" transform="translate(0 2.758)">
      <g id="Group_713" data-name="Group 713" transform="translate(0 0)">
        <path id="Path_1005" data-name="Path 1005" d="M152.572,6.1a.44.44,0,0,0-.589.2l-.431.887-.345-.166.454-.934s0-.005,0-.008l.008-.018a2.411,2.411,0,0,0,.179-.61,2.37,2.37,0,0,0-.7-1.946,2.677,2.677,0,0,0-2.006-.747,2.287,2.287,0,0,0-.485.088,2.362,2.362,0,0,0-.776.4,2.129,2.129,0,0,0-.592.69s0,.005,0,.008a.009.009,0,0,1,0,.005l-1.609,3.319c-.008.013-.016.026-.023.042a.222.222,0,0,0-.018.044l-4.167,8.589a.9.9,0,0,0-.088.42v0l.093,2.769a1.173,1.173,0,0,0,.28.719l-.247.5a.442.442,0,1,0,.791.392l.239-.485c.036,0,.07.005.106.005a1.149,1.149,0,0,0,.688-.226l2.237-1.64a.926.926,0,0,0,.13-.117l.021-.023a.918.918,0,0,0,.125-.189l4.979-10.257.345.166-2.218,4.569a.44.44,0,0,0,.2.589.424.424,0,0,0,.192.044.438.438,0,0,0,.4-.249l2.382-4.907a.453.453,0,0,0,.036-.06.568.568,0,0,0,.023-.06l.594-1.225A.44.44,0,0,0,152.572,6.1Zm-9.766,13.236a.293.293,0,0,1-.272.036l-.042-.023-.021-.008a.284.284,0,0,1-.125-.226l-.062-1.8a5.356,5.356,0,0,0,1.972.963Zm2.32-1.808a4.454,4.454,0,0,1-2.789-1.36L146.249,8.1l2.794,1.352Zm5.848-12.182a1.582,1.582,0,0,1-.114.374l-1.427,2.94-2.8-1.352,1.432-2.953a1.294,1.294,0,0,1,.35-.4,1.514,1.514,0,0,1,.48-.254,1.364,1.364,0,0,1,.293-.054,1.8,1.8,0,0,1,1.328.49A1.5,1.5,0,0,1,150.974,5.344Z" transform="translate(-134.213 -2.758)" fill="#707070"/>
        <path id="Path_1006" data-name="Path 1006" d="M5.91,122.819c-.112,0-.241,0-.376,0-.706.008-2.021.021-2.442-.449a.618.618,0,0,1-.132-.527,7.694,7.694,0,0,1,1-2.527l.07-.132c.138-.257.28-.516.42-.771a22.929,22.929,0,0,0,1.147-2.27,4.883,4.883,0,0,0,.4-1.629,2.586,2.586,0,0,0-.493-1.72,3.841,3.841,0,0,0-1.91-1.29,13.425,13.425,0,0,0-2.185-.488c-.311-.052-.607-.1-.88-.156a.441.441,0,1,0-.174.864c.291.06.594.109.913.161,1.31.215,2.8.457,3.529,1.435a2.465,2.465,0,0,1-.018,2.483,22.051,22.051,0,0,1-1.105,2.182c-.14.254-.285.519-.426.781l-.07.13a8.279,8.279,0,0,0-1.095,2.841,1.488,1.488,0,0,0,.353,1.219,3.8,3.8,0,0,0,2.753.745c.122,0,.241,0,.353,0,.132,0,.254,0,.358,0H5.9a.44.44,0,0,0,.005-.88Z" transform="translate(0 -105.373)" fill="#707070"/>
      </g>
    </g>
  </g>
</svg>
